PathFileType	4	(X/Y/Z)	/home/abdul/Desktop/myosuite/custom_workspace/IK/output/S1_12_3.trc
DataRate	CameraRate	NumFrames	NumMarkers	Units	OrigDataRate	OrigDataStartFrame	OrigNumFrames
200.0	200.0	67	3	mm	200.0	1	2443
Frame#	Time	V_Shoulder			V_Elbow			V_Wrist		
		X1	Y1	Z1	X2	Y2	Z2	X3	Y3	Z3

1	0.0	-201.21255601315804	555.0156629500233	353.52565033831706	-352.9843336700148	481.60131875492993	11.416587047021888	-331.00131080100516	210.11481464764915	43.680387317627854
2	0.005	-201.05040110951077	554.9935248067095	353.7589374742538	-353.733633929627	481.433011842591	12.182499012340937	-331.3007136593276	209.97419382868566	44.038659512840006
3	0.01	-200.88474870051314	554.9712385941352	353.99742395336915	-354.4981683089986	481.2586395017437	12.968243172349236	-331.6047409226832	209.82927671381515	44.415863450100474
4	0.015	-200.71569208133974	554.9488293534287	354.24098483681536	-355.2773750911663	481.0781099373794	13.773518065351125	-331.91289506332794	209.68006664734318	44.81234433956716
5	0.02	-200.54332884260194	554.9263218304967	354.4894889616639	-356.0706656864992	480.89133107495763	14.597996576174152	-332.224651444575	209.52656964118563	45.22842686996716
6	0.025	-200.3677605921764	554.903740346332	354.7427993197773	-356.8774259178532	480.6982104169671	15.441326692126761	-332.5394588479753	209.36879417164084	45.66441401164691
7	0.03	-200.18909267139907	554.8811086659633	355.00077344516313	-357.69701735386593	480.49865489631554	16.303132301154868	-332.8567400788488	209.20675096279336	46.12058585673054
8	0.035	-200.00743386700233	554.8584498665306	355.26326380795336	-358.52877868469864	480.2925707268903	17.183014028910055	-333.1758926499682	209.04045275684624	46.597198502770574
9	0.04	-199.82289612013543	554.8357862049687	355.5301182132078	-359.37202713457964	480.0798632516395	18.080550111527764	-333.49628954297435	208.86991407170783	47.09448298621048
10	0.045	-199.6355942337623	554.8131389857778	355.801180202797	-360.2260599055659	479.86043678855174	18.99529730100067	-333.8172800468718	208.69515094619146	47.61264427185361
11	0.05	-199.4456455796823	554.7905284293468	356.07628945868714	-361.09015564702156	479.6341944749404	19.926791800119155	-334.13819067270583	208.51618067322582	48.15186030435023
12	0.055	-199.25316980636407	554.7679735412974	356.35528220602254	-361.9635759454086	479.40103811047715	20.874550224037453	-334.4583261432713	208.33302152151833	48.712281127480026
13	0.06	-199.0582885487263	554.7454919832936	356.6379916144767	-362.84556682909624	479.1608679994627	21.838070585609383	-334.776970456441	208.14569244616274	49.294028076723976
14	0.065	-198.86112514093512	554.7230999457572	356.9242481964243	-363.73536028302124	478.9135827928715	22.81683330172155	-335.09338802043527	207.95421278873653	49.897193050291776
15	0.07	-198.66180433322464	554.7008120229117	357.21388020057265	-364.63217576816896	478.65907933075846	23.81030221793418	-335.40682485908246	207.75860196749193	50.52183786340283
16	0.075	-198.46045201368088	554.6786410905621	357.5067139997731	-365.53522174099794	478.3972524856697	24.817925648819415	-335.7165098848444	207.5588791583076	51.16799369021457
17	0.08	-198.25719493585976	554.6565981870009	357.8025744718284	-366.4436971680923	478.1279950077563	25.839137431464792	-336.02165623710675	207.35506296713282	51.83566059735452
18	0.085	-198.05216045304226	554.6346923974119	358.1012853721947	-367.35679303150096	477.85119737234197	26.873357989684624	-336.32146268295867	207.14717109472627	52.524807172547334
19	0.09	-197.8454762598576	554.6129307421247	358.4026696975721	-368.273693820409	477.5667476307559	27.91999540655482	-336.61511507741676	206.93521999456456	53.23537025133801
20	0.095	-197.63727014193717	554.591318069053	358.7065500394674	-369.1935790049824	477.2745312652907	28.978446502956885	-336.90178787977703	206.71922452486888	53.96725474440143
21	0.1	-197.4276697341895	554.5698569506261	359.0127489268987	-370.1156244884312	476.97443104919904	30.04809791988493	-337.1806457225223	206.49919759577654	54.72033356740106
22	0.105	-197.21680228821978	554.5485475855074	359.32108915750723	-371.03900403355374	476.66632691269103	31.128327202335356	-337.45084502895554	206.27514981276113	55.49444767481857
23	0.11	-197.00479444934635	554.5273877053644	359.63139411642214	-371.9628906602471	476.35009581593533	32.21850388266285	-337.7115356754914	206.04708911748537	56.289406198626544
24	0.115	-196.79177204360084	554.5063724869387	359.9434880823147	-372.88645801070084	476.02561163011	33.31799056134878	-337.96186269430245	205.81502042734945	57.10498669212075
25	0.12	-196.5778598750322	554.4854944696394	360.2571965201584	-373.80888167923104	475.6927450275782	34.426143983188744	-338.20096801180114	205.57894527507824	57.94093547867102
26	0.125	-196.3631815335721	554.4647434788593	360.57234636029466	-374.72934050395884	475.3513633822961	35.54231610696622	-338.4279922182326	205.33886144976833	58.796968104594605
27	0.13	-196.14785921365623	554.4441065551949	360.88876626347866	-375.64701781778626	475.0013306815781	36.66585516673795	-338.64207636346475	205.09476264089318	59.67276989480506
28	0.135	-195.93201354373787	554.423567889725	361.206286871658	-376.56110265638046	474.6425074503608	37.796106722915354	-338.8423637738912	204.84663808684053	60.56799660934861
29	0.14	-195.71576342677272	554.4031087654793	361.5247410443041	-377.4707909211396	474.27475068911235	38.93241470138423	-339.02800188520473	204.594472229627	61.48227519841025
30	0.145	-195.49922589169978	554.3827075052149	361.8439640801892	-378.37528649537387	473.89791382653414	40.07412241896316	-339.19814408566754	204.33824437750445	62.41520465285741
31	0.15	-195.2825159558928	554.3623394255841	362.16379392455974	-379.27380231220167	473.5118466881928	41.220573593558974	-339.35195156438283	204.07792837723565	63.36635694689356
32	0.155	-195.06574649850685	554.341976797766	362.4840713617229	-380.1655613729248	473.1163954822031	42.3711133374364	-339.4885951589778	203.81349229787685	64.33527806891868
33	0.16	-194.84902814460114	554.3215888146112	362.8046401931155	-381.0497977149097	472.7114028030572	43.525089132077134	-339.6072571970304	203.54489812795603	65.32148913624331
34	0.165	-194.6324691598758	554.3011415643242	363.12534740098005	-381.9257573282658	472.2967076546614	44.6818517831632	-339.70713332551475	203.27210148798324	66.324487588878
35	0.17	-194.4161753558216	554.2805980106955	363.4460432978173	-382.7926990208652	471.87214549359993	45.840756354278966	-339.787434322506	202.9950513602662	67.3437484572244
36	0.175	-194.20025000504688	554.2599179798702	363.76658166183415	-383.6498952315046	471.4375482935941	47.001163077986064	-339.8473878853681	202.7136898380349	68.37872569813005
37	0.18	-193.9847937665124	554.2390581536287	364.0868198586417	-384.4966327912513	470.9927446320655	48.16243824298634	-339.88624038965867	202.42795189589836	69.42885359343595
38	0.185	-193.76990462037588	554.217972069129	364.4066189494973	-385.3322136332547	470.5375597996463	49.32395505614848	-339.90325861300664	202.13776518366703	70.49354820484928
39	0.19	-193.55567781212207	554.1966101250542	364.72584378641704	-386.15595545153224	470.071815933401	50.48509447823558	-339.897731418273	201.84304984557338	71.57220887871168
40	0.195	-193.3422058056316	554.1749195940823	365.0443630945139	-386.96719230945246	469.59533217444414	51.64524603223188	-339.86897139036915	201.54371836690981	72.66421979400857
41	0.2	-193.1295782448217	554.1528446415896	365.3620495419404	-387.7652751988441	469.10792485054446	52.80380858322849	-339.81631642120135	201.23967545007804	73.76895154677852
42	0.205	-192.91788192347516	554.1303263504807	365.6787797978395	-388.5495725508501	468.60940768420994	53.960191088889246	-339.73913123731796	200.9308179220048	74.8857627639336
43	0.21	-192.70720076286094	554.1073027520243	365.99443457872417	-389.31947069981857	468.09959202664123	55.11381331957915	-339.6368088649697	200.6170346748268	76.01400173939277
44	0.215	-192.4976157967377	554.0837088625673	366.30889868371884	-390.07437430168477	467.5782871178316	56.26410654729811	-339.5087720274422	200.29820664168022	77.15300808536044
45	0.22	-192.28920516332414	554.0594767259807	366.6220610191137	-390.813706708439	467.0453003729707	57.41051420262337	-339.354474469695	199.97420680934877	78.30211439155224
46	0.225	-192.08204410381492	554.0345354616911	366.9338146126854	-391.5369103004009	466.5004376951898	58.552492498923314	-339.1734022055282	199.64490026942715	79.46064788517879
47	0.23	-191.8762049670171	554.0088113181323	367.2440566182485	-392.24344677812906	465.9435038145562	59.689511023164265	-338.96507468271466	199.3101443095444	80.62793208454548
48	0.235	-191.67175721968238	553.9822277314486	367.5526883109026	-392.932797415878	465.37430265309297	60.821053292689555	-338.7290458617606	198.96978854606374	81.80328843921126
49	0.24	-191.46876746211197	553.9547053892767	367.8596150734436	-393.6044632785892	464.7926377154656	61.946617277407356	-338.4649052042124	198.62367509953162	82.9860379497723
50	0.245	-191.26729944861418	553.926162299421	368.16474637440325	-394.2579654044489	464.1983125048379	63.065715886879204	-338.17227856669126	198.27163881399105	84.1755027604938
51	0.25	-191.06741411240128	553.896513863236	368.46799573818356	-394.89284495507565	463.591130963259	64.17787742185625	-337.85082899712893	197.9135075210989	85.37100771820715
52	0.255	-190.86916959452014	553.8656729535238	368.7692807077398	-395.5086633354142	462.970897935803	65.28264598986367	-337.50025742998116	197.54910234979945	86.57188189111496
53	0.26	-190.67262127642007	553.8335499967537	369.0685228002672	-396.10500228540207	462.3374196575392	66.37958188448619	-337.1203032775188	197.1782380821021	87.77746004140567
54	0.265	-190.47782181577261	553.8000530594043	369.3656474563315	-396.68146394545056	461.6905042622715	67.4682619280593	-336.71074491464003	196.8007235552974	88.98708404586652
55	0.27	-190.28482118517033	553.7650879382297	369.6605839828788	-397.23767089774043	461.02996231184375	68.54827977752147	-336.271400055001	196.41636211071395	90.20010425900038
56	0.275	-190.0936667133453	553.7285582542514	369.9532654905475	-397.77326618526945	460.35560734467253	69.61924619323159	-335.8021260166404	196.0249520888812	91.41588081349467
57	0.28	-189.90440312856342	553.6903655502756	370.2436288256913	-398.28791331051684	459.66725644203154	70.68078927060579	-335.30281987565934	195.6262873707101	92.6337848532566
58	0.285	-189.7170726038652	553.6504093917365	370.53161449751514	-398.78129621549783	458.9647308104849	71.7325546344754	-334.77341850692505	195.22015796404628	93.85319969461806
59	0.29	-189.53171480384182	553.6085874706705	370.8171666007074	-399.2531192448788	458.24785637874004	72.7742055961167	-334.21389851118033	194.80635063468188	95.07352191172066
60	0.295	-189.3483669326512	553.5647957126235	371.1002327339427	-399.70310709371046	457.5164644070712	73.80542327295055	-333.624276028375	194.38464958063904	96.29416234251761
61	0.3	-189.16706378299799	553.518928386302	371.38076391461146	-400.1310047412089	456.77039210735495	74.82590667095866	-333.00460643747203	193.95483714826196	97.51454701226805
62	0.305	-188.9878377858178	553.470878215776	371.6587144901232	-400.53657737188263	456.0094832716523	75.8353727299123	-332.35498394343256	193.51669458837245	98.73411797185244
63	0.31	-188.8107190604275	553.4205364950521	371.93404204611215	-400.9196102851606	455.23358890717793	76.83355633155777	-331.6755410525402	193.07000285046547	99.95233404869833
64	0.315	-188.63573546491895	553.367793204835	372.20670731186175	-401.2799087945324	454.44256787540974	77.82021027095495	-330.96644793768917	192.61454341264056	101.16867150857556
65	0.32	-188.46291264659465	553.3125371313008	372.4766740632524	-401.61729811705806	453.63628753301714	78.79510519121592	-330.22791169572514	192.15009914468982	102.38262462699151
66	0.325	-188.29227409226147	553.2546559867134	372.74390902351934	-401.9316232539567	452.81462437221944	79.7580294819451	-329.4601754993971	191.67645520149262	103.59370616939276
67	0.33	-188.12384117821776	553.1940365317195	373.00838176209726	-402.22274886282565	451.9774646581319	80.70878914173703	-328.6635176469412	191.19339994360433	104.80144777985194
